# xmcd
#
# Track frame offsets: 
#        150
#        15162
#        31496
#        46446
#        62763
#        75857
#        90692
#        105521
#        120036
#        135340
#        150098
#        163953
#        179132
#        192768
#        206071
#        220440
#
# Disc length: 3119 seconds
#
# Revision: 0
# Processed by: cddbd v1.5.2PL0 Copyright (c) Steve Scherf et al.
# Submitted via: ExactAudioCopy v0.99pb5
#
DISCID=c50c2d10
DTITLE=ทูล ทองใจ - Boxset แผ่น 4 เหนือฝัน
DYEAR=2009
DGENRE=Vocal
TTITLE0=เหนือฝัน
TTITLE1=ไพรระกำ
TTITLE2=คืนพี่ครวญ
TTITLE3=แขไข
TTITLE4=กระท่อมวิปโยค
TTITLE5=มนต์เมืองเหนือ
TTITLE6=ใครทำเธอร้องไห้
TTITLE7=สวรรค์จำลอง
TTITLE8=ในห้องหัวใจ
TTITLE9=ตัดสวาท
TTITLE10=แก่งกระพือ
TTITLE11=วาสนา
TTITLE12=มนต์สวาท
TTITLE13=อยากบอกว่ารัก
TTITLE14=เทวี
TTITLE15=สวนสน
EXTD=
EXTT0=
EXTT1=
EXTT2=
EXTT3=
EXTT4=
EXTT5=
EXTT6=
EXTT7=
EXTT8=
EXTT9=
EXTT10=
EXTT11=
EXTT12=
EXTT13=
EXTT14=
EXTT15=
PLAYORDER=
